<?xml version="1.0" encoding="UTF-8"?>
<svg width="1320px" height="460px" viewBox="0 0 1320 460" version="1.1" xmlns="http://www.w3.org/2000/svg" xmlns:xlink="http://www.w3.org/1999/xlink">
    <title>bg</title>
    <defs>
        <rect id="path-1" x="0" y="0" width="1320" height="460"></rect>
        <filter x="-16.3%" y="-20.7%" width="132.5%" height="141.3%" filterUnits="objectBoundingBox" id="filter-3">
            <feGaussianBlur stdDeviation="50" in="SourceGraphic"></feGaussianBlur>
        </filter>
        <polygon id="path-4" points="0 86.407 29.743 86.407 29.743 0 0 0"></polygon>
        <polygon id="path-6" points="0 0 18.4514932 0 18.4514932 22.6533914 0 22.6533914"></polygon>
        <path d="M36.2526829,0.569237331 L3.89365388,32.5269687 C-0.326161601,36.691439 -1.25869445,42.6833362 1.79904877,45.9071217 L1.79904877,45.9071217 L1.88576366,46.001758 C4.94211573,49.226963 10.8433654,48.4679799 15.0603986,44.3030364 L15.0603986,44.3030364 L39.867349,19.8031185 C40.0690655,19.6043823 47.8149773,11.9440471 48,11.7349009 L48,11.7349009 L36.8671066,0 C36.6584344,0.17791624 36.4557905,0.369554743 36.2526829,0.569237331 L36.2526829,0.569237331 Z" id="path-8"></path>
        <path d="M36.2526829,0.569237331 L3.89365388,32.5269687 C-0.326161601,36.691439 -1.25869445,42.6833362 1.79904877,45.9071217 L1.79904877,45.9071217 L1.88576366,46.001758 C4.94211573,49.226963 10.8433654,48.4679799 15.0603986,44.3030364 L15.0603986,44.3030364 L39.867349,19.8031185 C40.0690655,19.6043823 47.8149773,11.9440471 48,11.7349009 L48,11.7349009 L36.8671066,0 C36.6584344,0.17791624 36.4557905,0.369554743 36.2526829,0.569237331 L36.2526829,0.569237331 Z" id="path-10"></path>
        <path d="M36.2526829,0.569237331 L3.89365388,32.5269687 C-0.326161601,36.691439 -1.25869445,42.6833362 1.79904877,45.9071217 L1.79904877,45.9071217 L1.88576366,46.001758 C4.94211573,49.226963 10.8433654,48.4679799 15.0603986,44.3030364 L15.0603986,44.3030364 L39.867349,19.8031185 C40.0690655,19.6043823 47.8149773,11.9440471 48,11.7349009 L48,11.7349009 L36.8671066,0 C36.6584344,0.17791624 36.4557905,0.369554743 36.2526829,0.569237331 L36.2526829,0.569237331 Z" id="path-12"></path>
        <polygon id="path-14" points="0 0 29 0 29 29 0 29"></polygon>
        <polygon id="path-16" points="0 0 29 0 29 29 0 29"></polygon>
    </defs>
    <g id="文档中心" stroke="none" stroke-width="1" fill="none" fill-rule="evenodd">
        <g id="docs" transform="translate(-300, -230)">
            <g id="bg" transform="translate(300, 230)">
                <mask id="mask-2" fill="white">
                    <use xlink:href="#path-1"></use>
                </mask>
                <g id="蒙版"></g>
                <ellipse id="椭圆形" fill="#005FE8" filter="url(#filter-3)" mask="url(#mask-2)" cx="660" cy="520" rx="461.3125" ry="363"></ellipse>
                <g id="编组-9" mask="url(#mask-2)">
                    <g transform="translate(52, 25)">
                        <g id="INFINI-Labs" stroke="none" stroke-width="1" fill="none" fill-rule="evenodd" transform="translate(163.2409, 308.2948)">
                            <path d="M23.5,6.5 L23.5,123.5 L-0.5,123.5 L-0.5,6.5 L23.5,6.5 Z" id="路径" stroke="#40CFE7" fill="#40CFE7" fill-rule="nonzero"></path>
                            <path d="M71.7181938,6.5 L124.049414,85.0051194 L124.049414,6.5 L148.5,6.5 L148.5,123.5 L124.282116,123.5 L71.9505863,45.1579694 L71.9505863,123.5 L47.5,123.5 L47.5,6.5 L71.7181938,6.5 Z" id="路径" stroke="#40CFE7" fill="#40CFE7" fill-rule="nonzero"></path>
                            <path d="M241.5,6.5 L241.5,26.2793696 L193.562645,26.2793696 L193.562645,55.0272206 L230.298144,55.0272206 L230.298144,74.474212 L193.562645,74.474212 L193.562645,123.5 L169.5,123.5 L169.5,6.5 L241.5,6.5 Z" id="路径" stroke="#40CFE7" fill="#40CFE7" fill-rule="nonzero"></path>
                            <path d="M281.5,6.5 L281.5,123.5 L257.5,123.5 L257.5,6.5 L281.5,6.5 Z" id="路径" stroke="#40CFE7" fill="#40CFE7" fill-rule="nonzero"></path>
                            <path d="M328.718194,6.5 L381.049414,85.0051194 L381.049414,6.5 L405.5,6.5 L405.5,123.5 L381.282116,123.5 L328.950586,45.1579694 L328.950586,123.5 L304.5,123.5 L304.5,6.5 L328.718194,6.5 Z" id="路径" stroke="#40CFE7" fill="#40CFE7" fill-rule="nonzero"></path>
                            <path d="M450.5,6.5 L450.5,123.5 L426.5,123.5 L426.5,6.5 L450.5,6.5 Z" id="路径" stroke="#40CFE7" fill="#40CFE7" fill-rule="nonzero"></path>
                            <path d="M536.959459,6.5 L536.959459,104.053009 L575.5,104.053009 L575.5,123.5 L512.5,123.5 L512.5,6.5 L536.959459,6.5 Z" id="路径" stroke="#40CFE7" fill="#40CFE7" fill-rule="nonzero"></path>
                            <path d="M624.532062,29.5 C638.916817,29.5 649.000077,35.8719237 654.79636,43.1339713 L654.79636,30.9947552 L679.5,30.9947552 L679.5,124.005245 L654.79636,124.005245 L654.79636,111.579174 C648.967806,119.127764 638.587033,125.5 624.363951,125.5 C612.219019,125.5 601.312761,120.475179 593.537814,111.696663 C586.079435,103.275579 581.5,91.3933902 581.5,77.1678322 C581.5,62.9780633 586.056201,51.2803127 593.499653,43.0255635 C601.297933,34.3773125 612.269547,29.5 624.532062,29.5 Z M630.584055,50.9283217 C624.048595,50.9283217 617.695717,53.4773265 613.16481,58.4134932 C609.124581,62.8150938 606.539861,69.10979 606.539861,77.1678322 C606.539861,85.281689 609.160212,91.7542757 613.24629,96.3164243 C617.770601,101.367864 624.086057,104.071678 630.584055,104.071678 C637.245786,104.071678 643.59126,101.469518 648.111616,96.5175873 C652.205678,92.0326512 654.79636,85.6260052 654.79636,77.5 C654.79636,69.3739948 652.205678,62.9673488 648.111616,58.4824127 C643.59126,53.5304816 637.245786,50.9283217 630.584055,50.9283217 Z" id="形状" stroke="#40CFE7" fill="#40CFE7" fill-rule="nonzero"></path>
                            <path d="M726.076389,-0.5 L726.076389,42.9953478 C732.087071,35.0060768 742.771447,29.0393858 756.394097,29.0393858 C768.743755,29.0393858 779.715676,33.9239484 787.502275,42.586075 C794.960265,50.8826452 799.5,62.6527327 799.5,76.9359146 C799.5,91.26682 794.929681,103.230655 787.425751,111.695903 C779.643251,120.475408 768.702353,125.5 756.394097,125.5 C742.286731,125.5 732.039829,119.382465 726.076389,111.812344 L726.076389,123.997997 L701.5,123.997997 L701.5,-0.5 L726.076389,-0.5 Z M750.163194,50.5667557 C743.635145,50.5667557 737.290052,53.2065132 732.754524,58.2246388 C728.683771,62.7285357 726.076389,69.1434668 726.076389,77.2696929 C726.076389,85.395919 728.683771,91.8108501 732.754524,96.3147471 C737.290052,101.332873 743.635145,103.97263 750.163194,103.97263 C756.750854,103.97263 763.11101,101.263835 767.662314,96.2011433 C771.784898,91.6153436 774.418403,85.1029506 774.418403,76.9359146 C774.418403,68.8250694 771.820722,62.4919342 767.744537,58.0676663 C763.186666,53.1205796 756.788981,50.5667557 750.163194,50.5667557 Z" id="形状" stroke="#40CFE7" fill="#40CFE7" fill-rule="nonzero"></path>
                            <path d="M849.330435,29.5 C860.368593,29.5 869.249789,32.4900173 875.587117,37.7178802 C882.267407,43.2286639 886.135384,51.230602 886.707872,60.8933566 L863.571775,60.8933566 C863.346081,57.209662 861.780717,54.1341293 859.076435,52.0295104 C856.537503,50.0535765 853.007635,48.9353147 848.669565,48.9353147 C844.593429,48.9353147 841.467854,49.7275624 839.344292,51.1597024 C837.206546,52.6014083 836.117391,54.6966033 836.117391,57.2377622 C836.117391,60.0491944 837.657058,62.0285439 840.139001,63.5874818 C843.616404,65.7716794 848.908346,67.1434185 854.690636,68.6547257 C863.252699,70.8925776 872.870171,73.4265273 879.451622,79.1333899 C884.158459,83.2147507 887.336251,88.9052146 887.5,97.263986 C887.5,105.477923 883.857525,112.678277 877.261715,117.757531 C870.988937,122.588027 862.030485,125.5 850.982609,125.5 C839.578401,125.5 829.870883,122.210387 822.822581,116.823241 C815.331548,111.097708 810.837226,103.003363 810.474947,93.9405594 L834.747958,93.9405594 C835.044087,97.5441537 836.888598,100.714482 839.865749,102.929128 C842.644701,104.996338 846.404694,106.230769 850.817391,106.230769 C855.076317,106.230769 858.408115,105.306295 860.71145,103.753604 C863.10058,102.143079 864.36087,99.8537765 864.36087,97.263986 C864.36087,94.5330031 862.812803,92.6141733 860.324881,91.1013905 C856.830054,88.9763588 851.511589,87.641947 845.698144,86.1713685 C836.981091,83.9662887 827.171993,81.4640959 820.538401,75.7555562 C815.794019,71.672776 812.647826,65.9645666 812.647826,57.5699301 C812.647826,49.5446367 816.308026,42.3247237 823.018162,37.2118261 C829.284177,32.4373334 838.22288,29.5 849.330435,29.5 Z" id="路径" stroke="#40CFE7" fill="#40CFE7" fill-rule="nonzero"></path>
                        </g>
                        <line x1="0" y1="434.169765" x2="1215.52135" y2="434.169765" id="路径-2" stroke="#FFFFFF" stroke-width="3" fill="none"></line>
                        <polygon id="Fill-41备份" stroke="none" fill="#D7D7D7" fill-rule="evenodd" points="594.779707 85.4368152 864.779707 85.4368152 864.779707 78.1847827 594.779707 78.1847827"></polygon>
                        <line x1="606.24093" y1="24.7351646" x2="606.24093" y2="105.797052" id="路径-10" stroke="#4B4DFF" stroke-width="6" fill="none" stroke-linecap="round" stroke-linejoin="round"></line>
                        <path d="M471.765041,205.735165 L471.765041,90.8831026 C471.765041,81.9875697 478.976295,74.7763154 487.871828,74.7763154 C496.767361,74.7763154 503.978615,81.9875697 503.978615,90.8831026 L503.978615,130.385983 C503.978615,138.990186 510.9537,145.96527 519.557903,145.96527 C528.162106,145.96527 535.137191,138.990186 535.137191,130.385983 L535.137191,44.7351646 C535.137191,33.6894696 544.091496,24.7351646 555.137191,24.7351646 L663.765041,24.7351646 C674.810736,24.7351646 683.765041,33.6894696 683.765041,44.7351646 L683.765041,139.987161 L683.765041,139.987161" id="路径-8" stroke="#4B4DFF" stroke-width="6" fill="none" stroke-linecap="round" stroke-linejoin="round"></path>
                        <g id="编组-2" stroke="none" stroke-width="1" fill="none" fill-rule="evenodd" transform="translate(165.2409, 308.2948)" fill-opacity="0">
                            <polyline id="路径" stroke="#00FF62" stroke-width="4" fill="#00FF62" fill-rule="nonzero" points="11 8 0 8 0 63"></polyline>
                            <polyline id="路径" stroke="#00FF62" stroke-width="4" fill="#00FF62" fill-rule="nonzero" points="23.5 124 23.5 113.590627 23.5 74"></polyline>
                            <polyline id="路径" stroke="#00FF62" stroke-width="4" fill="#00FF62" fill-rule="nonzero" points="121.5 7 121.5 21.8581857 121.5 63"></polyline>
                            <polyline id="路径" stroke="#00FF62" stroke-width="4" fill="#00FF62" fill-rule="nonzero" points="100 52 80.6186401 22.0811008 70.8491549 7 48 7"></polyline>
                            <path d="M58,124 L70,124 L70,96.0047428 L70,44" id="路径" stroke="#00FF62" stroke-width="4" fill="#00FF62" fill-rule="nonzero" stroke-dasharray="5,5"></path>
                            <path d="M112,107 L123.280528,124 L131.345188,124 L147,124 C147,116.322384 147,110.667896 147,107.036537" id="路径" stroke="#00FF62" stroke-width="4" fill="#00FF62" fill-rule="nonzero"></path>
                            <polyline id="路径" stroke="#00FF62" stroke-width="4" fill="#00FF62" fill-rule="nonzero" points="230 26 242 26 242 15"></polyline>
                            <path d="M169.55,26 C169.483333,61.1021861 169.45,87.4355195 169.45,105" id="路径" stroke="#00FF62" stroke-width="4" fill="#00FF62" fill-rule="nonzero"></path>
                            <path d="M169.452889,116 C169.455159,117.676778 169.459253,119.093164 169.46517,120.249157 C169.475325,122.232928 169.502638,123.483209 169.547111,124" id="路径" stroke="#00FF62" stroke-width="4" fill="#00FF62" fill-rule="nonzero"></path>
                            <polyline id="路径" stroke="#00FF62" stroke-width="4" fill="#00FF62" fill-rule="nonzero" points="230.5 74 230.5 63.8267534 230.5 56"></polyline>
                            <path d="M212,56 L192,56 L192,44.1102249 L192,36" id="路径" stroke="#00FF62" stroke-width="4" fill="#00FF62" fill-rule="nonzero" stroke-dasharray="5,5"></path>
                            <line x1="257.5" y1="21" x2="257.5" y2="113" id="路径" stroke="#00FF62" stroke-width="4" fill="#00FF62" fill-rule="nonzero"></line>
                            <line x1="257" y1="124.5" x2="271" y2="124.5" id="路径" stroke="#00FF62" stroke-width="4" fill="#00FF62" fill-rule="nonzero"></line>
                            <polyline id="路径" stroke="#00FF62" stroke-width="4" fill="#00FF62" fill-rule="nonzero" points="280 23 280 8 273 8"></polyline>
                            <polyline id="路径" stroke="#00FF62" stroke-width="4" fill="#00FF62" fill-rule="nonzero" points="305 22 305 99.836325 305 124 328 124"></polyline>
                            <polyline id="路径" stroke="#00FF62" stroke-width="4" fill="#00FF62" fill-rule="nonzero" points="380 124.5 387.241455 124.5 403 124.5"></polyline>
                            <line x1="403.5" y1="28" x2="403.5" y2="7" id="路径" stroke="#00FF62" stroke-width="4" fill="#00FF62" fill-rule="nonzero"></line>
                            <path d="M380,68.6443866 L380,87 L372.051796,75.2669363 L338,25" id="路径" stroke="#00FF62" stroke-width="4" fill="#00FF62" fill-rule="nonzero" stroke-dasharray="5,5"></path>
                            <line x1="427.5" y1="26" x2="427.5" y2="80" id="路径" stroke="#00FF62" stroke-width="4" fill="#00FF62" fill-rule="nonzero"></line>
                            <line x1="449.5" y1="124" x2="449.5" y2="89" id="路径" stroke="#00FF62" stroke-width="4" fill="#00FF62" fill-rule="nonzero"></line>
                            <line x1="449" y1="7.5" x2="426" y2="7.5" id="路径" stroke="#00FF62" stroke-width="4" fill="#00FF62" fill-rule="nonzero"></line>
                            <path d="M512,7 L512,18.5344039 L512,45.7971976 M574,123 L574,112.603796 L574,104.553009 M546.295598,104.553009 L535.459459,104.553009 L535.459459,72.3817824 L535.459459,21.2972221" id="形状" stroke="#00FF62" stroke-width="4" fill="#00FF62" fill-rule="nonzero"></path>
                            <path d="M643,34.0586702 C637.964732,31.5832405 631.832156,30 624.602272,30 C609.486998,30 596.350878,37.2867154 588.800067,49.8123365 C584.490215,56.9617092 582,65.8178633 582,76" id="路径" stroke="#00FF62" stroke-width="4" fill="#00FF62" fill-rule="nonzero"></path>
                            <path d="M624,125 C631.562702,125 638.014137,123.12731 643.239349,120.212169 C648.116432,117.49125 651.925244,113.862158 654.572308,110 L654.572308,123.5 L666.16461,123.5 L678,123.5" id="路径" stroke="#00FF62" stroke-width="4" fill="#00FF62" fill-rule="nonzero"></path>
                            <polyline id="路径" stroke="#00FF62" stroke-width="4" fill="#00FF62" fill-rule="nonzero" points="678 49 678 31 655 31"></polyline>
                            <path d="M654,78.3272727 C654,87.6590979 650.617276,94.7222463 645.505336,99.228338 C641.205139,103.018892 635.681299,105 629.918089,105 C617.631399,105 606,95.1818182 606,78" id="路径" stroke="#00FF62" stroke-width="4" fill="#00FF62" fill-rule="nonzero" stroke-dasharray="5,5"></path>
                            <path d="M724,18 C724,14 724,8 724,0 L701,0" id="路径" stroke="#00FF62" stroke-width="4" fill="#00FF62" fill-rule="nonzero"></path>
                            <line x1="701.5" y1="52" x2="701.5" y2="110" id="路径" stroke="#00FF62" stroke-width="4" fill="#00FF62" fill-rule="nonzero"></line>
                            <path d="M724,110 C727.842713,115.458813 733.796801,120.310617 741.711333,122.935453 C745.659319,124.244793 750.095119,125 755,125" id="路径" stroke="#00FF62" stroke-width="4" fill="#00FF62" fill-rule="nonzero"></path>
                            <path d="M787,45 C779.389622,35.442784 767.978007,30 755,30" id="路径" stroke="#00FF62" stroke-width="4" fill="#00FF62" fill-rule="nonzero"></path>
                            <path d="M773,77.6687117 C773,83.8159142 771.721289,89.1311892 769.292721,93.3064219 C764.85,100.944418 756.968129,105 748.918089,105 C744.287867,105 739.750706,103.635612 735.894027,101.00435 C729.516678,96.6533332 725,88.8382467 725,78 C725,66.6509162 729.952479,58.6166887 736.807897,54.4035557 C740.458507,52.1600003 744.648738,51 748.918089,51 C757.074413,51 764.87921,54.9808765 769.292721,62.6166458 C771.616371,66.6367691 773,71.6699819 773,77.6687117 Z" id="路径" stroke="#00FF62" stroke-width="4" fill="#00FF62" fill-rule="nonzero"></path>
                            <path d="M862.766816,61 C867.376395,61 870.833579,61 873.138368,61 C875.774286,61 879.728164,61 885,61 C884.362707,52.0534432 881.044533,44.4790499 875.190386,39.0971078 C868.851521,33.2695462 859.558518,30 848,30" id="路径" stroke="#00FF62" stroke-width="4" fill="#00FF62" fill-rule="nonzero"></path>
                            <path d="M818.168701,42 C813.5065,46.5771352 811,52.3757674 811,58.700367 C811,81.4300679 836.380676,83.5405145 852,88" id="路径" stroke="#00FF62" stroke-width="4" fill="#00FF62" fill-rule="nonzero" stroke-dasharray="5,5"></path>
                            <path d="M824,94 C820.666667,94 815.666667,94 809,94 C809.35353,100.286335 811.590299,106.101072 815.354143,111" id="路径" stroke="#00FF62" stroke-width="4" fill="#00FF62" fill-rule="nonzero"></path>
                            <path d="M834,57 C834,52.1698113 838.443038,49 847,49" id="路径" stroke="#00FF62" stroke-width="4" fill="#00FF62" fill-rule="nonzero"></path>
                        </g>
                        <g id="编组-3" stroke="none" stroke-width="1" fill="none" fill-rule="evenodd" transform="translate(430.2409, 181.2948)" stroke-linecap="round" stroke-linejoin="round">
                            <polygon id="Stroke-199" stroke="#FFFFFF" stroke-width="3" points="53.5943048 35.2979219 53.5943048 6 30.4048565 6 30.4048565 35.2979219 0 129 84 129"></polygon>
                            <path d="M26.3100859,0 L56.6899141,0 C58.5173225,0 60,1.34302326 60,3 C60,4.65697674 58.5173225,6 56.6899141,6 L26.3100859,6 C24.4818408,6 23,4.65697674 23,3 C23,1.34302326 24.4818408,0 26.3100859,0 Z" id="Stroke-201" stroke="#FFFFFF" stroke-width="3"></path>
                        </g>
                        <g id="编组-4" stroke="none" stroke-width="1" fill="none" fill-rule="evenodd" transform="translate(190.7409, 240.7948) scale(-1, 1) translate(-190.7409, -240.7948)translate(134.2409, 167.2948)">
                            <path d="M62.45452,124.970804 C59.7638204,124.970804 57.5824807,122.77048 57.5824807,120.054647 C57.5824807,117.338815 59.7638204,115.139259 62.45452,115.139259 C79.7598149,115.139259 93.838402,100.93165 93.838402,83.4696518 C93.838402,66.0076534 79.7598149,51.8023495 62.45452,51.8023495 C59.7638204,51.8023495 57.5824807,49.6020256 57.5824807,46.8861927 C57.5824807,44.1711282 59.7638204,41.9708042 62.45452,41.9708042 C85.132839,41.9708042 103.582481,60.5859752 103.582481,83.4696518 C103.582481,106.353328 85.132839,124.970804 62.45452,124.970804" id="Fill-244" fill="#FFFFFF" transform="translate(80.5825, 83.4708) rotate(8) translate(-80.5825, -83.4708)"></path>
                            <polygon id="Fill-245" fill="#D7D7D7" points="94 147 68.6408058 112 40.702063 112 12 112 12 127.530754 40.702063 127.530754 40.702063 147"></polygon>
                            <path d="M54,122 C54,120.343166 52.6568343,119 51,119 C49.3431657,119 48,120.343166 48,122 C48,123.656834 49.3431657,125 51,125 C52.6568343,125 54,123.656834 54,122" id="Fill-246" fill="#4A4848"></path>
                            <path d="M54,141 C54,139.343166 52.6568343,138 51,138 C49.3431657,138 48,139.343166 48,141 C48,142.656834 49.3431657,144 51,144 C52.6568343,144 54,142.656834 54,141" id="Fill-247" fill="#4A4848"></path>
                            <polygon id="Fill-248" fill="#FFFFFF" points="56.5794991 78 36 57.4205009 86.4205009 7 107 27.5794991"></polygon>
                            <polygon id="Fill-249" fill="#D7D7D7" points="66 66.1181494 45.8818506 46 35 56.8818506 55.1181494 77"></polygon>
                            <path d="M90,10.9073732 L102.092627,23 L112.161631,12.9309959 C113.279456,11.8131704 113.279456,10.001576 112.161631,8.88375049 L104.11625,0.838369118 C102.998424,-0.279456373 101.18683,-0.279456373 100.069004,0.838369118 L90,10.9073732 Z" id="Fill-250" fill="#4A4848"></path>
                            <polygon id="Fill-251" fill="#FFFFFF" points="34 64.4383449 48.5616551 79 53 74.5608721 38.4383449 60"></polygon>
                            <polygon id="Fill-252" fill="#E69947" points="46.4497669 82 32 67.5495726 34.5502331 65 49 79.4496503"></polygon>
                            <path d="M92.3776237,48.8970647 C92.3776237,41.4412279 86.3334605,35.3970647 78.8776237,35.3970647 C71.4217869,35.3970647 65.3776237,41.4412279 65.3776237,48.8970647 C65.3776237,56.3529015 71.4217869,62.3970647 78.8776237,62.3970647 C86.3334605,62.3970647 92.3776237,56.3529015 92.3776237,48.8970647" id="Fill-253" fill="#D7D7D7" transform="translate(78.8776, 48.8971) rotate(8) translate(-78.8776, -48.8971)"></path>
                            <path d="M87.5070649,48.0456025 C87.5070649,43.9035428 84.1494918,40.5459697 80.0066976,40.5459697 C75.8646379,40.5459697 72.5070649,43.9035428 72.5070649,48.0456025 C72.5070649,52.1876621 75.8646379,55.5459697 80.0066976,55.5459697 C84.1494918,55.5459697 87.5070649,52.1876621 87.5070649,48.0456025" id="Fill-254" fill="#4A4848" transform="translate(80.0071, 48.046) rotate(8) translate(-80.0071, -48.046)"></path>
                            <path d="M42,101 L3.80377027,101 C3.35960148,101 3,100.685333 3,100.296667 L3,98.7033333 C3,98.3146667 3.35960148,98 3.80377027,98 L42,98 L42,101 Z" id="Fill-255" fill="#4A4848"></path>
                            <line x1="41.5" y1="99" x2="41.5" y2="112" id="Stroke-256" stroke="#4A4848" stroke-width="4"></line>
                            <path d="M1.90738533,138 L41,138 L41,146 L1.90738533,146 C0.854007527,146 0,145.160424 0,144.124847 L0,139.875153 C0,138.839576 0.854007527,138 1.90738533,138" id="Fill-257" fill="#2D272B"></path>
                        </g>
                        <path d="M730.574574,248.11859 L700.33697,192.952427 L700.33697,128.655424 L676.479509,128.655424 L676.479509,192.952427 L646.241905,248.11859 C639.934317,259.627656 648.251778,273.696074 661.364476,273.696074 L715.452003,273.696074 C728.564701,273.696074 736.883105,259.627656 730.574574,248.11859 Z" id="Stroke-35" stroke="#FFFFFF" stroke-width="3" fill="none" stroke-linecap="round" stroke-linejoin="round"></path>
                        <polygon id="Fill-40" stroke="none" fill="#D7D7D7" fill-rule="evenodd" points="810.822421 424.420555 819.625883 424.420555 819.625883 15.4205551 810.822421 15.4205551"></polygon>
                        <polygon id="Fill-41" stroke="none" fill="#D7D7D7" fill-rule="evenodd" points="679.449987 158.857773 864.779707 158.857773 864.779707 151.60574 679.449987 151.60574"></polygon>
                        <polygon id="Fill-42" stroke="none" fill="#4A4848" fill-rule="evenodd" points="781.784224 433.641874 849.469861 433.641874 849.469861 423.972497 781.784224 423.972497"></polygon>
                        <rect id="矩形备份-4" stroke="none" fill="#4A4848" fill-rule="evenodd" x="800.24093" y="146.294765" width="30" height="16" rx="8"></rect>
                        <path d="M872.837521,154.829332 C872.837521,149.933864 868.868928,145.96527 863.97346,145.96527 C859.078924,145.96527 855.110331,149.933864 855.110331,154.829332 C855.110331,159.7248 859.078924,163.692461 863.97346,163.692461 C868.868928,163.692461 872.837521,159.7248 872.837521,154.829332" id="Fill-44" stroke="none" fill="#D7D7D7" fill-rule="evenodd"></path>
                        <path d="M872.837521,80.829332 C872.837521,75.9338636 868.868928,71.9652705 863.97346,71.9652705 C859.078924,71.9652705 855.110331,75.9338636 855.110331,80.829332 C855.110331,85.7248005 859.078924,89.6924611 863.97346,89.6924611 C868.868928,89.6924611 872.837521,85.7248005 872.837521,80.829332" id="Fill-44备份" stroke="none" fill="#D7D7D7" fill-rule="evenodd"></path>
                        <path d="M824.490638,15.4200888 C824.490638,10.5246204 820.522045,6.55695975 815.627509,6.55695975 C810.73204,6.55695975 806.763447,10.5246204 806.763447,15.4200888 C806.763447,20.3155573 810.73204,24.2841504 815.627509,24.2841504 C820.522045,24.2841504 824.490638,20.3155573 824.490638,15.4200888" id="Fill-45" stroke="none" fill="#D7D7D7" fill-rule="evenodd"></path>
                        <polygon id="Fill-46备份" stroke="none" fill="#4A4848" fill-rule="evenodd" points="805.767132 74.3334366 824.490638 73.3500943 824.490638 87.8541594 805.151884 87.8541594"></polygon>
                        <g id="编组" stroke="none" stroke-width="1" fill="none" fill-rule="evenodd" transform="translate(544.2409, 247.2948)" stroke-linecap="round" stroke-linejoin="round">
                            <path d="M61.5659096,0 L3.43409038,0 C1.53723013,0 0,1.56039549 0,3.48584056 C0,5.41128564 1.53723013,6.97168113 3.43409038,6.97168113 L4.69028089,6.97168113 L4.69028089,60.6180143 C4.69028089,64.142785 7.50507816,67 10.9775207,67 L54.0224793,67 C57.4942931,67 60.3097191,64.142785 60.3097191,60.6180143 L60.3097191,6.97168113 L61.5659096,6.97168113 C63.4627699,6.97168113 65,5.41128564 65,3.48584056 C65,1.56039549 63.4627699,0 61.5659096,0 Z" id="Stroke-1" stroke="#FFFFFF" stroke-width="3"></path>
                            <line x1="5" y1="6.5" x2="61" y2="6.5" id="Stroke-7" stroke="#FFFFFF" stroke-width="3"></line>
                            <line x1="24.5" y1="41.5" x2="24.5" y2="41.5" id="Stroke-11" stroke="#EF6262" stroke-width="3"></line>
                            <line x1="42.5" y1="43.5" x2="42.5" y2="43.5" id="Stroke-13" stroke="#EF6262" stroke-width="3"></line>
                            <line x1="21.5" y1="57.5" x2="21.5" y2="57.5" id="Stroke-15" stroke="#EF6262" stroke-width="3"></line>
                            <line x1="15.5" y1="33.5" x2="15.5" y2="33.5" id="Stroke-17" stroke="#EF6262" stroke-width="3"></line>
                            <line x1="47.5" y1="47.5" x2="47.5" y2="47.5" id="Stroke-19" stroke="#EF6262" stroke-width="3"></line>
                            <line x1="42.5" y1="57.5" x2="42.5" y2="57.5" id="Stroke-21" stroke="#EF6262" stroke-width="3"></line>
                            <line x1="17" y1="15.5" x2="26" y2="15.5" id="Stroke-43" stroke="#FFFFFF" stroke-width="3"></line>
                            <line x1="17" y1="20.5" x2="23" y2="20.5" id="Stroke-45" stroke="#FFFFFF" stroke-width="3"></line>
                            <line x1="17" y1="24.5" x2="26" y2="24.5" id="Stroke-47" stroke="#FFFFFF" stroke-width="3"></line>
                            <line x1="17" y1="28.5" x2="23" y2="28.5" id="Stroke-49" stroke="#FFFFFF" stroke-width="3"></line>
                            <line x1="17" y1="33.5" x2="26" y2="33.5" id="Stroke-51" stroke="#FFFFFF" stroke-width="3"></line>
                            <line x1="17" y1="37.5" x2="23" y2="37.5" id="Stroke-53" stroke="#FFFFFF" stroke-width="3"></line>
                            <line x1="17" y1="42.5" x2="26" y2="42.5" id="Stroke-55" stroke="#FFFFFF" stroke-width="3"></line>
                            <line x1="17" y1="46.5" x2="23" y2="46.5" id="Stroke-57" stroke="#FFFFFF" stroke-width="3"></line>
                            <line x1="17" y1="50.5" x2="26" y2="50.5" id="Stroke-59" stroke="#FFFFFF" stroke-width="3"></line>
                            <line x1="17" y1="55.5" x2="23" y2="55.5" id="Stroke-61" stroke="#FFFFFF" stroke-width="3"></line>
                        </g>
                        <g id="编组" stroke="none" stroke-width="1" fill="none" fill-rule="evenodd" transform="translate(172.2409, 101.2948)">
                            <path d="M32.5,0 C17.6738086,0 5.01422104,7.26528002 0,17.4985864 C5.01422104,27.7337776 17.6738086,35 32.5,35 C47.3261914,35 59.9848357,27.7337776 65,17.4985864 C59.9848357,7.26528002 47.3261914,0 32.5,0" id="Fill-1" fill="#FFFFFF"></path>
                            <path d="M16,17.4985817 C16,8.38696599 23.3891181,1 32.5009455,1 C41.6137184,1 49,8.38696599 49,17.4985817 C49,26.613034 41.6137184,34 32.5009455,34 C23.3905364,34 16,26.613034 16,17.4985817" id="Fill-3" fill="#FFFFFF"></path>
                            <path d="M16,17.4985817 C16,8.38696599 23.3891181,1 32.5009455,1 C41.6137184,1 49,8.38696599 49,17.4985817 C49,26.613034 41.6137184,34 32.5009455,34 C23.3905364,34 16,26.613034 16,17.4985817 Z" id="Stroke-5" stroke="#000000" stroke-width="3"></path>
                            <path d="M32.5,0 C17.6738086,0 5.01422104,7.26528002 0,17.4985864 C5.01422104,27.7337776 17.6738086,35 32.5,35 C47.3261914,35 59.9848357,27.7337776 65,17.4985864 C59.9848357,7.26528002 47.3261914,0 32.5,0 Z" id="Stroke-7" stroke="#000000" stroke-width="3"></path>
                            <path d="M48,4.20713409 C43.5311124,2.84984273 39.1119312,1.80146482 33.9532499,2.03188763 C19.2274914,2.68781234 6.51578046,10.8187082 2,21" id="Stroke-9" stroke="#000000" stroke-width="3"></path>
                            <path d="M36.5735036,10.2486948 L31.9990696,17.9986043 L31.9990696,9 C27.0296702,9 23,13.028948 23,17.9986043 C23,22.9719824 27.0296702,27 31.9990696,27 C36.9698646,27 41,22.9719824 41,17.9986043 C41,14.6982166 39.2224232,11.815146 36.5735036,10.2486948" id="Fill-11" fill="#23BED0"></path>
                            <path d="M39,27.490123 C33.2617809,30.5982826 25.9218248,28.7534689 22.6093295,23.3728385 C19.2963476,17.9912953 21.2626245,11.1072467 26.9998702,8" id="Stroke-13" stroke="#000000" stroke-width="3"></path>
                            <path d="M41,25 C40.7003115,25.3642987 40.3647975,25.6994536 40,26" id="Stroke-15" stroke="#000000" stroke-width="3"></path>
                        </g>
                        <g id="编组" stroke="none" stroke-width="1" fill="none" fill-rule="evenodd" transform="translate(559.2409, 59.2948)">
                            <path d="M57.0719208,37.4525121 L57.0719208,9.16058537 L62.6652531,9.16058537 L62.6652531,0 L31.3336867,0 L31.3336867,9.16058537 L36.9291394,9.16058537 L36.9291394,37.4525121 C15.8142037,42.0968499 0,61.0211121 0,83.6749344 C0,109.811743 21.0439058,131 47.0005301,131 C72.9582144,131 94,109.811743 94,83.6749344 C94,61.0211121 78.1879166,42.0968499 57.0719208,37.4525121 Z" id="Stroke-3" stroke="#FFFFFF" stroke-width="3"></path>
                        </g>
                        <g id="编组" stroke="none" stroke-width="1" fill="none" fill-rule="evenodd" transform="translate(848.2409, 220.2948)">
                            <g transform="translate(20, 80)">
                                <path d="M0,0.154772234 C0.332814165,5.79205322 6.3568052,4.86639621 9.94507747,4.90866093 C13.6038473,4.95092566 19.9311419,5.97123185 20,0" id="Fill-1" fill="#26BDCF"></path>
                                <path d="M0,0.154772234 C0.332814165,5.79205322 6.3568052,4.86639621 9.94507747,4.90866093 C13.6038473,4.95092566 19.9311419,5.97123185 20,0" id="Stroke-3" stroke="#000000" stroke-width="2.5"></path>
                            </g>
                            <path d="M9.82101426,51.524876 L9.59341512,51.524876 C12.1682685,54.5700555 14.037675,61.0137318 15.0099431,65 L44.6801424,65 C45.6330757,61.1004254 47.4522115,54.7319926 49.9442011,51.7309777 C56.106503,46.304724 59.9966805,38.4199717 60,29.6192119 C60.0093863,13.2706597 46.5788275,0.00708983451 30.0154659,0 C13.4432656,-0.0054507438 0.00442036782,13.2493953 0,29.5984927 C-0.00220873328,38.2896587 3.78245557,46.1084366 9.82101426,51.524876 Z" id="Stroke-4" stroke="#FFFFFF" stroke-width="2.5" stroke-linejoin="bevel"></path>
                            <path d="M15,30 C18.0847318,33.167789 23.3261542,35.2423464 24.0741798,40.0833391 C25.5731439,46.9988893 24.822788,53.9128254 24.7342367,61" id="Stroke-6" stroke="#FFFFFF" stroke-width="2.5"></path>
                            <path d="M45,30 C41.9167467,33.167789 36.6731187,35.2423464 35.9244451,40.0833391 C34.4276807,46.9988893 35.1769368,53.9128254 35.2654959,61" id="Stroke-8" stroke="#FFFFFF" stroke-width="2.5"></path>
                            <path d="M46,67.0016727 C46,68.1067745 45.1115107,69 44.0133467,69 L15.9855468,69 C14.8884893,69 14,68.1067745 14,67.0016727 C14,65.896571 14.8884893,65 15.9855468,65 L44.0133467,65 C45.1115107,65 46,65.896571 46,67.0016727 Z" id="Stroke-10" stroke="#FFFFFF" stroke-width="2.5" stroke-linejoin="bevel"></path>
                            <path d="M46,71.0011145 C46,72.1044859 45.1115107,73 44.0133467,73 L15.9855468,73 C14.8884893,73 14,72.1044859 14,71.0011145 C14,69.8983004 14.8884893,69 15.9855468,69 L44.0133467,69 C45.1115107,69 46,69.8983004 46,71.0011145 Z" id="Stroke-12" stroke="#FFFFFF" stroke-width="2.5" stroke-linejoin="bevel"></path>
                            <path d="M46,77.0013937 C46,78.1052265 45.1115107,79 44.0133467,79 L15.9855468,79 C14.8884893,79 14,78.1052265 14,77.0013937 C14,75.8947735 14.8884893,75 15.9855468,75 L44.0133467,75 C45.1115107,75 46,75.8947735 46,77.0013937 Z" id="Stroke-14" stroke="#FFFFFF" stroke-width="2.5" stroke-linejoin="bevel"></path>
                        </g>
                        <g id="编组-6" stroke="none" stroke-width="1" fill="none" fill-rule="evenodd" transform="translate(1056.2409, 347.2948)">
                            <rect id="矩形" stroke="#FFFFFF" stroke-width="3" x="19.5" y="1.5" width="86" height="82" rx="7"></rect>
                            <rect id="矩形" stroke="#FFFFFF" stroke-width="3" fill="#FFFFFF" x="1.5" y="77.5" width="122" height="6" rx="3"></rect>
                            <line x1="43" y1="0.538461538" x2="43" y2="41.4615385" id="直线" stroke="#FFFFFF" stroke-width="3"></line>
                            <line x1="52" y1="0.538461538" x2="52" y2="41.4615385" id="直线备份" stroke="#FFFFFF" stroke-width="3"></line>
                            <line x1="62" y1="0.538461538" x2="62" y2="41.4615385" id="直线备份-2" stroke="#FFFFFF" stroke-width="3"></line>
                            <line x1="72" y1="1" x2="81" y2="44" id="直线备份-3" stroke="#FFFFFF" stroke-width="3"></line>
                            <circle id="椭圆形" fill="#FFFFFF" cx="42" cy="46" r="5"></circle>
                            <circle id="椭圆形备份" fill="#FFFFFF" cx="52" cy="46" r="5"></circle>
                            <circle id="椭圆形备份-2" fill="#FFFFFF" cx="63" cy="46" r="5"></circle>
                            <circle id="椭圆形备份-3" fill="#FFFFFF" cx="82.5" cy="44.5" r="4.5"></circle>
                        </g>
                        <g id="编组" stroke="none" stroke-width="1" fill="none" fill-rule="evenodd" transform="translate(229.1124, 195.4983) scale(-1, 1) rotate(-180) translate(-229.1124, -195.4983)translate(214.2409, 152.2948)">
                            <path d="M22.2774,80.0192 L22.2774,20.3082 C22.2774,12.8192 16.5884,6.5262 16.5884,1.5002 L13.1534,1.5002 C13.1534,6.5262 7.4654,12.8192 7.4654,20.3082 L7.4654,80.0192 L22.2774,80.0192 Z" id="Stroke-1" stroke="#FFFFFF" stroke-width="3" stroke-linecap="round" stroke-linejoin="round"></path>
                            <mask id="mask-5" fill="white">
                                <use xlink:href="#path-4"></use>
                            </mask>
                            <g id="Clip-4"></g>
                            <polygon id="Fill-3" fill="#92D6CA" mask="url(#mask-5)" points="11.15 71.02 18.594 71.02 18.594 24.818 11.15 24.818"></polygon>
                            <path d="M18.5934,32.9136 C15.9544,33.5906 13.4654,34.4496 11.1494,35.4136 L11.1494,71.0196 L18.5934,71.0196 L18.5934,32.9136 Z" id="Fill-5" fill="#000000" mask="url(#mask-5)"></path>
                            <path d="M14.8713,86.407 L14.8713,86.407 C8.6203,86.407 3.5523,81.339 3.5523,75.088 L3.5523,47.919 L26.1903,47.919 L26.1903,75.088 C26.1903,81.339 21.1223,86.407 14.8713,86.407" id="Fill-6" fill="#E69947" mask="url(#mask-5)"></path>
                            <path d="M26.847,47.885 L2.896,47.885 C1.296,47.885 0,46.589 0,44.989 C0,43.39 1.296,42.094 2.896,42.094 L26.847,42.094 C28.446,42.094 29.743,43.39 29.743,44.989 C29.743,46.589 28.446,47.885 26.847,47.885" id="Fill-7" fill="#E69947" mask="url(#mask-5)"></path>
                        </g>
                        <g id="编组" stroke="none" stroke-width="1" fill="none" fill-rule="evenodd" transform="translate(675.2409, 280.2948)">
                            <line x1="12.5" y1="26" x2="12.5" y2="23" id="Stroke-1" stroke="#FFFFFF" stroke-width="3" stroke-linecap="round" stroke-linejoin="round"></line>
                            <g>
                                <path d="M26,34 L0,34 L0,28.9915029 C0,27.5281692 1.23600041,26.3420399 2.76086026,26.3420399 L23.2391397,26.3420399 C24.7639996,26.3420399 26,27.5281692 26,28.9915029 L26,34 Z" id="Fill-2" fill="#4A4848"></path>
                                <g transform="translate(3.7745, 0)">
                                    <mask id="mask-7" fill="white">
                                        <use xlink:href="#path-6"></use>
                                    </mask>
                                    <g id="Clip-5"></g>
                                    <path d="M9.2254816,-5.08631781e-05 C9.2254816,-5.08631781e-05 0,4.62798971 0,13.8001466 C0,18.6896239 4.13042503,22.6533914 9.2254816,22.6533914 C14.3210682,22.6533914 18.4514932,18.6896239 18.4514932,13.8001466 C18.4514932,4.62798971 9.2254816,-5.08631781e-05 9.2254816,-5.08631781e-05" id="Fill-4" fill="#FAF48C" mask="url(#mask-7)"></path>
                                </g>
                                <path d="M13.000106,19.5231188 C10.032539,19.5231188 7.61831006,17.2063011 7.61831006,14.3584717 C7.61831006,9.70855997 11.043282,6.65676929 13.000636,5.29261886 C14.9532199,6.6537175 18.3819019,9.70601681 18.3819019,14.3584717 C18.3819019,17.2063011 15.967673,19.5231188 13.000106,19.5231188" id="Fill-6" fill="#E69947"></path>
                                <path d="M13,17.3548724 L13,17.3548724 C14.100316,17.3548724 14.9918051,16.4988451 14.9918051,15.4434342 L14.9918051,11.8214673 C14.9918051,10.7655477 14.100316,9.91002902 13,9.91002902 C11.899684,9.91002902 11.0081949,10.7655477 11.0081949,11.8214673 L11.0081949,15.4434342 C11.0081949,16.4988451 11.899684,17.3548724 13,17.3548724" id="Fill-8" fill="#EF6262"></path>
                            </g>
                        </g>
                        <line x1="676.24093" y1="266.794765" x2="691.763019" y2="266.794765" id="路径-5" stroke="#00FF62" stroke-width="4" fill="none" stroke-linecap="round"></line>
                        <line x1="721.24093" y1="253.794765" x2="726.24093" y2="253.794765" id="路径-5备份-4" stroke="#00FF62" stroke-width="4" fill="none" stroke-linecap="round"></line>
                        <line x1="695.24093" y1="253.794765" x2="715.24093" y2="253.794765" id="路径-5备份-12" stroke="#00FF62" stroke-width="4" fill="none" stroke-linecap="round"></line>
                        <line x1="668.192691" y1="246.503232" x2="700.24093" y2="246.294765" id="路径-5备份-8" stroke="#00A0FF" stroke-width="4" fill="none" stroke-linecap="round"></line>
                        <line x1="441.24093" y1="302.794765" x2="503.24093" y2="302.586298" id="路径-5备份-30" stroke="#00A0FF" stroke-width="4" fill="none" stroke-linecap="round"></line>
                        <line x1="444.24093" y1="294.794765" x2="500.28917" y2="294.586298" id="路径-5备份-31" stroke="#00A0FF" stroke-width="4" fill="none" stroke-linecap="round"></line>
                        <line x1="448.24093" y1="286.794765" x2="497.289151" y2="286.577436" id="路径-5备份-32" stroke="#00A0FF" stroke-width="4" fill="none" stroke-linecap="round"></line>
                        <line x1="682.24093" y1="260.794765" x2="697.763019" y2="260.794765" id="路径-5备份-2" stroke="#00FF62" stroke-width="4" fill="none" stroke-linecap="round"></line>
                        <line x1="689.24093" y1="239.794765" x2="704.763019" y2="239.794765" id="路径-5备份-5" stroke="#00A0FF" stroke-width="4" fill="none" stroke-linecap="round"></line>
                        <line x1="664.24093" y1="253.794765" x2="679.763019" y2="253.794765" id="路径-5备份-13" stroke="#00FF62" stroke-width="4" fill="none" stroke-linecap="round"></line>
                        <line x1="653.20739" y1="246.503232" x2="662.47501" y2="246.503232" id="路径-5备份-9" stroke="#00FF62" stroke-width="4" fill="none" stroke-linecap="round"></line>
                        <line x1="701.24093" y1="231.794765" x2="716.763019" y2="231.794765" id="路径-5备份-6" stroke="#00FF62" stroke-width="4" fill="none" stroke-linecap="round"></line>
                        <line x1="665.24093" y1="239.794765" x2="674.508549" y2="239.794765" id="路径-5备份-10" stroke="#00FF62" stroke-width="4" fill="none" stroke-linecap="round"></line>
                        <line x1="677.24093" y1="231.794765" x2="686.508549" y2="231.794765" id="路径-5备份-11" stroke="#00A0FF" stroke-width="4" fill="none" stroke-linecap="round"></line>
                        <line x1="652.24093" y1="260.794765" x2="667.763019" y2="260.794765" id="路径-5备份-3" stroke="#00A0FF" stroke-width="4" fill="none" stroke-linecap="round"></line>
                        <line x1="650.24093" y1="253.794765" x2="659.508549" y2="253.794765" id="路径-5备份-14" stroke="#00FF62" stroke-width="4" fill="none" stroke-linecap="round"></line>
                        <line x1="705.954471" y1="246.503232" x2="715.22209" y2="246.503232" id="路径-5备份-23" stroke="#00FF62" stroke-width="4" fill="none" stroke-linecap="round"></line>
                        <line x1="662.24093" y1="231.794765" x2="671.508549" y2="231.794765" id="路径-5备份-27" stroke="#00FF62" stroke-width="4" fill="none" stroke-linecap="round"></line>
                        <line x1="711.24093" y1="239.794765" x2="720.508549" y2="239.794765" id="路径-5备份-26" stroke="#00FF62" stroke-width="4" fill="none" stroke-linecap="round"></line>
                        <line x1="708.24093" y1="266.794765" x2="717.508549" y2="266.794765" id="路径-5备份-22" stroke="#00FF62" stroke-width="4" fill="none" stroke-linecap="round"></line>
                        <line x1="703.24093" y1="260.794765" x2="712.508549" y2="260.794765" id="路径-5备份-17" stroke="#00A0FF" stroke-width="4" fill="none" stroke-linecap="round"></line>
                        <line x1="718.24093" y1="260.794765" x2="727.508549" y2="260.794765" id="路径-5备份-18" stroke="#00FF62" stroke-width="4" fill="none" stroke-linecap="round"></line>
                        <line x1="686.24093" y1="253.794765" x2="689.24093" y2="253.794765" id="路径-5备份-15" stroke="#00A0FF" stroke-width="4" fill="none" stroke-linecap="round"></line>
                        <line x1="720.954471" y1="246.503232" x2="723.954471" y2="246.503232" id="路径-5备份-24" stroke="#00FF62" stroke-width="4" fill="none" stroke-linecap="round"></line>
                        <line x1="680.24093" y1="239.794765" x2="683.24093" y2="239.794765" id="路径-5备份-25" stroke="#00FF62" stroke-width="4" fill="none" stroke-linecap="round"></line>
                        <line x1="692.24093" y1="231.794765" x2="695.24093" y2="231.794765" id="路径-5备份-29" stroke="#00FF62" stroke-width="4" fill="none" stroke-linecap="round"></line>
                        <line x1="656.24093" y1="239.794765" x2="659.24093" y2="239.794765" id="路径-5备份-28" stroke="#00A0FF" stroke-width="4" fill="none" stroke-linecap="round"></line>
                        <line x1="673.24093" y1="260.794765" x2="676.24093" y2="260.794765" id="路径-5备份-16" stroke="#00A0FF" stroke-width="4" fill="none" stroke-linecap="round"></line>
                        <line x1="698.24093" y1="266.794765" x2="701.24093" y2="266.794765" id="路径-5备份-19" stroke="#00FF62" stroke-width="4" fill="none" stroke-linecap="round"></line>
                        <line x1="668.24093" y1="266.794765" x2="671.24093" y2="266.794765" id="路径-5备份-20" stroke="#00FF62" stroke-width="4" fill="none" stroke-linecap="round"></line>
                        <line x1="658.24093" y1="266.794765" x2="661.24093" y2="266.794765" id="路径-5备份-21" stroke="#00FF62" stroke-width="4" fill="none" stroke-linecap="round"></line>
                        <path d="M692.24093,240.503232 L692.24093,213.432228 L692.24093,111.366138 C692.24093,105.84329 696.718083,101.366138 702.24093,101.366138 L1006.24093,101.366138 C1011.76378,101.366138 1016.24093,105.84329 1016.24093,111.366138 L1016.24093,219.920555 L1016.24093,219.920555" id="路径-6" stroke="#4B4DFF" stroke-width="6" fill="none" stroke-linecap="round" stroke-linejoin="round" transform="translate(854.2409, 170.9347) scale(-1, 1) translate(-854.2409, -170.9347)"></path>
                        <g id="编组" stroke="none" stroke-width="1" fill="none" fill-rule="evenodd" transform="translate(928, 176)">
                            <polygon id="路径" fill="#F9A729" fill-rule="nonzero" points="13.5422688 50 18.462789 29.2707666 0 29.2707666 20.2185694 0 11.9111272 21.0869101 30 21.0869101"></polygon>
                        </g>
                        <g id="编组-7" stroke="none" stroke-width="1" fill="none" fill-rule="evenodd" transform="translate(966.2409, 241.2948)">
                            <rect id="矩形" stroke="#FFFFFF" stroke-width="3" x="1.5" y="1.5" width="95" height="25"></rect>
                            <rect id="矩形备份-2" stroke="#FFFFFF" stroke-width="3" x="1.5" y="34.5" width="95" height="25"></rect>
                            <rect id="矩形备份-3" stroke="#FFFFFF" stroke-width="3" x="1.5" y="66.5" width="95" height="25"></rect>
                            <line x1="7" y1="10.5" x2="21" y2="10.5" id="路径-3" stroke="#FFFFFF" stroke-width="3"></line>
                            <line x1="7" y1="43.5" x2="21" y2="43.5" id="路径-3备份-2" stroke="#FFFFFF" stroke-width="3"></line>
                            <line x1="7" y1="75.5" x2="21" y2="75.5" id="路径-3备份-4" stroke="#FFFFFF" stroke-width="3"></line>
                            <line x1="7" y1="16.5" x2="21" y2="16.5" id="路径-3备份" stroke="#FFFFFF" stroke-width="3"></line>
                            <line x1="7" y1="49.5" x2="21" y2="49.5" id="路径-3备份-3" stroke="#FFFFFF" stroke-width="3"></line>
                            <line x1="7" y1="82.5" x2="21" y2="82.5" id="路径-3备份-5" stroke="#FFFFFF" stroke-width="3"></line>
                            <circle id="椭圆形" fill="#FFFFFF" cx="83" cy="15" r="5"></circle>
                            <circle id="椭圆形备份-4" fill="#FFFFFF" cx="83" cy="48" r="5"></circle>
                            <circle id="椭圆形备份-5" fill="#FFFFFF" cx="83" cy="80" r="5"></circle>
                        </g>
                        <polygon id="Stroke-37" stroke="#FFFFFF" stroke-width="3" fill="none" stroke-linecap="round" stroke-linejoin="round" points="669.875462 128.655424 706.941406 128.655424 706.941406 121.403392 669.875462 121.403392"></polygon>
                        <rect id="矩形" stroke="none" fill="#4A4848" fill-rule="evenodd" x="669.24093" y="146.294765" width="39" height="16" rx="8"></rect>
                        <polygon id="Fill-40" stroke="none" fill="#D7D7D7" fill-rule="evenodd" points="380.822421 424.420555 389.625883 424.420555 389.625883 123.420555 380.822421 123.420555"></polygon>
                        <polygon id="Fill-41" stroke="none" fill="#D7D7D7" fill-rule="evenodd" points="268.779707 192.857773 427.779707 192.857773 427.779707 185.60574 268.779707 185.60574"></polygon>
                        <rect id="矩形备份-7" stroke="none" fill="#4A4848" fill-rule="evenodd" x="370.24093" y="181.294765" width="30" height="16" rx="8"></rect>
                        <polygon id="Fill-42" stroke="none" fill="#4A4848" fill-rule="evenodd" points="350.784224 433.641874 418.469861 433.641874 418.469861 423.972497 350.784224 423.972497"></polygon>
                        <path d="M435.837521,187.829332 C435.837521,182.933864 431.868928,178.96527 426.97346,178.96527 C422.078924,178.96527 418.110331,182.933864 418.110331,187.829332 C418.110331,192.7248 422.078924,196.692461 426.97346,196.692461 C431.868928,196.692461 435.837521,192.7248 435.837521,187.829332" id="Fill-44" stroke="none" fill="#D7D7D7" fill-rule="evenodd"></path>
                        <rect id="矩形备份-5" stroke="none" fill="#4A4848" fill-rule="evenodd" x="587.24093" y="73.2947646" width="39" height="16" rx="8"></rect>
                        <path d="M1043.21817,154.955923 C1043.21817,139.677006 1055.56836,127.294765 1070.80485,127.294765 C1083.16309,127.294765 1093.62299,135.446847 1097.12767,146.692289 C1100.39378,142.074634 1105.75583,139.063472 1111.82261,139.063472 C1121.7717,139.063472 1129.83782,147.148036 1129.83782,157.124577 C1129.83782,159.732832 1129.28236,162.208253 1128.28709,164.45103 L1138.3562,164.45103 C1145.1548,164.45103 1150.66614,169.97284 1150.66614,176.795109 C1150.66614,183.604901 1145.1548,189.130381 1138.3562,189.130381 L1047.95451,189.130381 C1041.15883,189.130381 1035.65189,183.604901 1035.65189,176.795109 C1035.65189,170.992951 1039.64177,166.122104 1045.02504,164.803298 C1043.85925,161.742965 1043.21817,158.427237 1043.21817,154.955923 Z" id="Fill-302" stroke="none" fill="#23BED0" fill-rule="evenodd" transform="translate(1093.159, 158.2126) scale(-1, 1) translate(-1093.159, -158.2126)"></path>
                        <g id="编组" stroke="none" stroke-width="1" fill="none" fill-rule="evenodd" transform="translate(1132.2409, 198.2948) scale(-1, 1) translate(-1132.2409, -198.2948)translate(1082.2409, 150.2948)">
                            <g transform="translate(0, 48)">
                                <g>
                                    <mask id="mask-9" fill="white">
                                        <use xlink:href="#path-8"></use>
                                    </mask>
                                    <g id="Clip-2"></g>
                                    <polygon id="Fill-1" fill="#F59121" mask="url(#mask-9)" points="-0.550368281 10.4360651 51.9195594 23.0274245 54.9805486 16.6451525 2.50366521 4.05379313"></polygon>
                                </g>
                                <g>
                                    <mask id="mask-11" fill="white">
                                        <use xlink:href="#path-10"></use>
                                    </mask>
                                    <g id="Clip-4"></g>
                                    <polygon id="Fill-3" fill="#F59121" mask="url(#mask-11)" points="-7.02857336 23.9383461 45.4422817 36.5297056 48.5041984 30.1450677 -3.96433812 17.5560742"></polygon>
                                </g>
                                <g>
                                    <mask id="mask-13" fill="white">
                                        <use xlink:href="#path-12"></use>
                                    </mask>
                                    <g id="Clip-6"></g>
                                    <polygon id="Fill-5" fill="#F59121" mask="url(#mask-13)" points="-13.50497 37.4378828 38.9686674 50.0278227 42.0291929 43.6460239 -10.4411984 31.0560841"></polygon>
                                </g>
                            </g>
                            <g stroke="#FFFFFF" stroke-width="3">
                                <path d="M91.3912045,46.9915719 C80.4742015,57.1971556 63.3935893,56.5772947 53.237537,45.6060826 C43.0828751,34.637199 43.7015532,17.4706378 54.6185562,7.26598547 C65.5337056,-2.93866686 82.6161715,-2.31973737 92.7699066,8.65147474 C102.925495,19.6222211 102.306817,36.7878509 91.3912045,46.9915719 Z" id="Stroke-11"></path>
                                <line x1="54.0478431" y1="44.8494425" x2="45.2454678" y2="53.0780844" id="Stroke-13"></line>
                                <path d="M39.5665593,46.1669845 C39.4196522,46.2890007 39.2695011,46.4054284 39.1244478,46.5395531 L2.84766877,80.4516731 C-0.76290859,83.8280755 -0.968207752,89.5074172 2.39258124,93.1376319 C5.75337022,96.7673809 11.40489,96.9727593 15.0177845,93.5949598 L51.295027,59.6828398 C51.4363729,59.550578 51.5624256,59.4080705 51.6935761,59.2683573 L39.5665593,46.1669845 Z" id="Stroke-15"></path>
                            </g>
                        </g>
                        <polyline id="路径-7" stroke="#4B4DFF" stroke-width="6" fill="none" stroke-linecap="round" stroke-linejoin="round" points="914.291276 101.187642 943.042277 91.2314919 914.24093 91.2314919 943.042277 79.8790143 914.291276 79.8790143 928.641604 72.2947646"></polyline>
                        <g id="编组-8" stroke="none" stroke-width="1" fill="none" fill-rule="evenodd" transform="translate(893.2409, 17.2948)">
                            <rect id="矩形" stroke="#FFFFFF" fill="#FFFFFF" x="0.5" y="0.5" width="70" height="54" rx="5"></rect>
                            <rect id="矩形" fill="#121212" x="3" y="3" width="65" height="41" rx="4"></rect>
                            <rect id="矩形" fill="#121212" x="45" y="47" width="10" height="4" rx="2"></rect>
                            <rect id="矩形备份" fill="#121212" x="58" y="47" width="10" height="4" rx="2"></rect>
                            <polyline id="路径-4" stroke="#38B9EF" stroke-width="3" stroke-linecap="round" stroke-linejoin="round" points="4 37 7.5 32.236035 11 34.6180175 14.5 30.0136448 18 34.6180175 21.5 30.5503332 25 34.6180175 28.5 8.79151347 32 18.5065303 35.5 8.79151347 39 10.208883 42.5 8 46 10.208883 49.5 8 53 10.208883 56.5 8 60 10.9175677 63.5 8.79151347 67 8.79151347"></polyline>
                        </g>
                        <g id="编组-8备份-2" stroke="none" stroke-width="1" fill="none" fill-rule="evenodd" transform="translate(55.2409, 298.2948)">
                            <rect id="矩形" stroke="#FFFFFF" fill="#FFFFFF" x="0.5" y="0.5" width="80" height="62" rx="5"></rect>
                            <rect id="矩形" fill="#121212" x="3" y="3" width="74" height="47" rx="4"></rect>
                            <rect id="矩形" fill="#121212" x="51" y="53" width="11" height="5" rx="2.5"></rect>
                            <rect id="矩形备份" fill="#121212" x="66" y="53" width="11" height="5" rx="2.5"></rect>
                            <rect id="矩形" fill="#38B9EF" x="13" y="24" width="10" height="26" rx="1"></rect>
                            <rect id="矩形备份-8" fill="#38B9EF" x="28" y="12" width="10" height="38" rx="1"></rect>
                            <rect id="矩形备份-9" fill="#38B9EF" x="43" y="20" width="10" height="30" rx="1"></rect>
                            <rect id="矩形备份-10" fill="#38B9EF" x="58" y="30" width="10" height="20" rx="1"></rect>
                        </g>
                        <g id="编组-8备份-4" stroke="none" stroke-width="1" fill="none" fill-rule="evenodd" transform="translate(345.2409, 60.2948)">
                            <rect id="矩形" stroke="#FFFFFF" fill="#FFFFFF" x="0.5" y="0.5" width="80" height="62" rx="5"></rect>
                            <rect id="矩形" fill="#121212" x="3" y="3" width="74" height="47" rx="4"></rect>
                            <g id="编组" transform="translate(11, 13)" stroke="#FFFFFF" stroke-width="3">
                                <path d="M51.8782899,31 C52.6048521,28.7130716 53,26.2780139 53,23.7469356 C53,10.6336903 42.4787534,0 29.5002897,0 C16.5212466,0 6,10.6336903 6,23.7469356 C6,26.2780139 6.39456847,28.7130716 7.1193925,31 L51.8782899,31 Z" id="Stroke-1"></path>
                                <line x1="48" y1="23.5" x2="43" y2="23.5" id="Stroke-3" stroke-linecap="round" stroke-linejoin="round"></line>
                                <line x1="46" y1="15" x2="42" y2="17" id="Stroke-5" stroke-linecap="round" stroke-linejoin="round"></line>
                                <line x1="39" y1="7" x2="37" y2="11" id="Stroke-7" stroke-linecap="round" stroke-linejoin="round"></line>
                                <line x1="30.5" y1="5" x2="30.5" y2="10" id="Stroke-9" stroke-linecap="round" stroke-linejoin="round"></line>
                                <line x1="21" y1="7" x2="23" y2="11" id="Stroke-11" stroke-linecap="round" stroke-linejoin="round"></line>
                                <line x1="14" y1="15" x2="18" y2="17" id="Stroke-13" stroke-linecap="round" stroke-linejoin="round"></line>
                                <line x1="11" y1="23.5" x2="16" y2="23.5" id="Stroke-15" stroke-linecap="round" stroke-linejoin="round"></line>
                                <line x1="35" y1="14" x2="24" y2="30" id="Stroke-17" stroke-linecap="round" stroke-linejoin="round"></line>
                                <line x1="0" y1="30.5" x2="58" y2="30.5" id="Stroke-19" stroke-linecap="round" stroke-linejoin="round"></line>
                            </g>
                            <rect id="矩形" fill="#121212" x="51" y="53" width="11" height="5" rx="2.5"></rect>
                            <rect id="矩形备份" fill="#121212" x="66" y="53" width="11" height="5" rx="2.5"></rect>
                        </g>
                        <g id="编组-8备份-3" stroke="none" stroke-width="1" fill="none" fill-rule="evenodd" transform="translate(55.2409, 366.2948)">
                            <rect id="矩形" stroke="#FFFFFF" fill="#FFFFFF" x="0.5" y="0.5" width="80" height="62" rx="5"></rect>
                            <rect id="矩形" fill="#121212" x="3" y="4" width="74" height="47" rx="4"></rect>
                            <rect id="矩形" fill="#121212" x="51" y="54" width="11" height="5" rx="2.5"></rect>
                            <rect id="矩形备份" fill="#121212" x="66" y="54" width="11" height="5" rx="2.5"></rect>
                        </g>
                        <g id="编组" stroke="none" stroke-width="1" fill="none" fill-rule="evenodd" transform="translate(81.2409, 226.2948)">
                            <polygon id="Fill-1" fill="#F9A729" points="0 0 0 30.874 7.928 30.874 6.137 41.387 14.107 30.874 32.456 30.874 32.456 0"></polygon>
                            <path d="M14.6269,20.0438 C14.1859,20.0438 13.7629,19.8608 13.4559,19.5358 L10.7969,16.7538 C10.1799,16.1048 10.2039,15.0818 10.8529,14.4638 C11.5019,13.8488 12.5239,13.8688 13.1389,14.5158 L14.5339,15.9828 L19.2369,10.2518 C19.8019,9.5588 20.8239,9.4548 21.5159,10.0228 C22.2099,10.5938 22.3049,11.6118 21.7379,12.3028 L15.8799,19.4508 C15.5859,19.8108 15.1509,20.0228 14.6909,20.0348 C14.6699,20.0438 14.6479,20.0438 14.6269,20.0438" id="Fill-2" fill="#000000"></path>
                        </g>
                        <g id="编组备份" stroke="none" stroke-width="1" fill="none" fill-rule="evenodd" transform="translate(325.2409, 152.2948)">
                            <polygon id="Fill-1" fill="#4A4848" points="3.913 22.945 18.725 22.945 18.725 0 3.913 0"></polygon>
                            <g id="编组" transform="translate(0, 8.316)">
                                <path d="M11.3192,111.313 C8.3862,111.313 6.0002,108.927 6.0002,105.994 L6.0002,44.417 L16.6382,44.417 L16.6382,105.994 C16.6382,108.927 14.2522,111.313 11.3192,111.313" id="Fill-2" fill="#E69947"></path>
                                <path d="M11.3192,117.313 L11.3192,117.313 C5.0682,117.313 0.0002,112.245 0.0002,105.994 L0.0002,0 L22.6382,0 L22.6382,105.994 C22.6382,112.245 17.5702,117.313 11.3192,117.313 Z" id="Stroke-6" stroke="#FFFFFF" stroke-width="3" stroke-linecap="round" stroke-linejoin="round"></path>
                                <line x1="0" y1="17.0333" x2="11.319" y2="17.0333" id="Stroke-8" stroke="#FFFFFF" stroke-width="3" stroke-linecap="round" stroke-linejoin="round"></line>
                                <line x1="0" y1="25.8343" x2="8.463" y2="25.8343" id="Stroke-10" stroke="#FFFFFF" stroke-width="3" stroke-linecap="round" stroke-linejoin="round"></line>
                                <line x1="0" y1="34.6352" x2="11.319" y2="34.6352" id="Stroke-12" stroke="#FFFFFF" stroke-width="3" stroke-linecap="round" stroke-linejoin="round"></line>
                                <line x1="0" y1="43.4362" x2="8.463" y2="43.4362" id="Stroke-14" stroke="#FFFFFF" stroke-width="3" stroke-linecap="round" stroke-linejoin="round"></line>
                                <line x1="0" y1="52.2371" x2="11.319" y2="52.2371" id="Stroke-16" stroke="#FFFFFF" stroke-width="3" stroke-linecap="round" stroke-linejoin="round"></line>
                                <line x1="0" y1="61.0381" x2="8.463" y2="61.0381" id="Stroke-18" stroke="#FFFFFF" stroke-width="3" stroke-linecap="round" stroke-linejoin="round"></line>
                                <line x1="0" y1="69.839" x2="11.319" y2="69.839" id="Stroke-20" stroke="#FFFFFF" stroke-width="3" stroke-linecap="round" stroke-linejoin="round"></line>
                                <line x1="0" y1="78.64" x2="8.463" y2="78.64" id="Stroke-22" stroke="#FFFFFF" stroke-width="3" stroke-linecap="round" stroke-linejoin="round"></line>
                                <line x1="0" y1="87.4409" x2="11.319" y2="87.4409" id="Stroke-24" stroke="#FFFFFF" stroke-width="3" stroke-linecap="round" stroke-linejoin="round"></line>
                            </g>
                        </g>
                        <g id="编组备份-2" stroke="none" stroke-width="1" fill="none" fill-rule="evenodd" transform="translate(272.2409, 152.2948)">
                            <polygon id="Fill-1" fill="#4A4848" points="3.913 22.945 18.725 22.945 18.725 0 3.913 0"></polygon>
                            <g id="编组" transform="translate(0, 8.316)">
                                <path d="M11.3192,111.313 C8.3862,111.313 6.0002,108.927 6.0002,105.994 L6.0002,44.417 L16.6382,44.417 L16.6382,105.994 C16.6382,108.927 14.2522,111.313 11.3192,111.313" id="Fill-2" fill="#E69947"></path>
                                <path d="M11.3192,117.313 L11.3192,117.313 C5.0682,117.313 0.0002,112.245 0.0002,105.994 L0.0002,0 L22.6382,0 L22.6382,105.994 C22.6382,112.245 17.5702,117.313 11.3192,117.313 Z" id="Stroke-6" stroke="#FFFFFF" stroke-width="3" stroke-linecap="round" stroke-linejoin="round"></path>
                                <line x1="0" y1="17.0333" x2="11.319" y2="17.0333" id="Stroke-8" stroke="#FFFFFF" stroke-width="3" stroke-linecap="round" stroke-linejoin="round"></line>
                                <line x1="0" y1="25.8343" x2="8.463" y2="25.8343" id="Stroke-10" stroke="#FFFFFF" stroke-width="3" stroke-linecap="round" stroke-linejoin="round"></line>
                                <line x1="0" y1="34.6352" x2="11.319" y2="34.6352" id="Stroke-12" stroke="#FFFFFF" stroke-width="3" stroke-linecap="round" stroke-linejoin="round"></line>
                                <line x1="0" y1="43.4362" x2="8.463" y2="43.4362" id="Stroke-14" stroke="#FFFFFF" stroke-width="3" stroke-linecap="round" stroke-linejoin="round"></line>
                                <line x1="0" y1="52.2371" x2="11.319" y2="52.2371" id="Stroke-16" stroke="#FFFFFF" stroke-width="3" stroke-linecap="round" stroke-linejoin="round"></line>
                                <line x1="0" y1="61.0381" x2="8.463" y2="61.0381" id="Stroke-18" stroke="#FFFFFF" stroke-width="3" stroke-linecap="round" stroke-linejoin="round"></line>
                                <line x1="0" y1="69.839" x2="11.319" y2="69.839" id="Stroke-20" stroke="#FFFFFF" stroke-width="3" stroke-linecap="round" stroke-linejoin="round"></line>
                                <line x1="0" y1="78.64" x2="8.463" y2="78.64" id="Stroke-22" stroke="#FFFFFF" stroke-width="3" stroke-linecap="round" stroke-linejoin="round"></line>
                                <line x1="0" y1="87.4409" x2="11.319" y2="87.4409" id="Stroke-24" stroke="#FFFFFF" stroke-width="3" stroke-linecap="round" stroke-linejoin="round"></line>
                            </g>
                        </g>
                        <rect id="矩形" stroke="none" fill="#4A4848" fill-rule="evenodd" x="264.24093" y="180.294765" width="39" height="16" rx="8"></rect>
                        <rect id="矩形备份-6" stroke="none" fill="#4A4848" fill-rule="evenodd" x="317.24093" y="180.294765" width="39" height="16" rx="8"></rect>
                        <g id="编组" stroke="none" stroke-width="1" fill="none" fill-rule="evenodd" transform="translate(64.2409, 379.2948)">
                            <mask id="mask-15" fill="white">
                                <use xlink:href="#path-14"></use>
                            </mask>
                            <g id="Clip-2"></g>
                            <path d="M21.8688735,2.01234641 L14.5006431,14.4980704 L14.5006431,0 C6.49398998,0 0,6.49199332 0,14.4980704 C0,22.5101507 6.49398998,29 14.5006431,29 C22.5077251,29 29,22.5101507 29,14.4980704 C29,9.18141089 26.1350296,4.53539058 21.8688735,2.01234641" id="Fill-1" fill="#00FF62" mask="url(#mask-15)"></path>
                        </g>
                        <g id="编组备份-3" stroke="none" stroke-width="1" fill="none" fill-rule="evenodd" transform="translate(99.2409, 379.2948)">
                            <mask id="mask-17" fill="white">
                                <use xlink:href="#path-16"></use>
                            </mask>
                            <g id="Clip-2"></g>
                            <path d="M14.5006431,14.4980704 L14.5006431,0 C6.49398998,0 0,6.49199332 0,14.4980704 C0,22.5101507 6.49398998,29 14.5006431,29 C22.5077251,29 29,22.5101507 29,14.4980704 C26.3333333,14.4993568 21.5002144,14.4993568 14.5006431,14.4980704 Z" id="Fill-1" fill="#23BED0" mask="url(#mask-17)"></path>
                        </g>
                        <g id="编组-5" stroke="none" stroke-width="1" fill="none" fill-rule="evenodd" transform="translate(1034.2409, 60.2948)">
                            <rect id="矩形" fill="#F9A729" x="0" y="0" width="30" height="24"></rect>
                            <polyline id="路径-9" stroke="#000000" stroke-width="4" stroke-linecap="round" stroke-linejoin="round" points="4 4.67476349 15.5 15 27 4"></polyline>
                        </g>
                        <path d="M606.24093,185.294765 C629.43689,185.294765 648.24093,166.490724 648.24093,143.294765 C627.885576,143.294765 597.195042,143.294765 564.24093,143.294765 C564.24093,166.490724 583.044971,185.294765 606.24093,185.294765 Z" id="椭圆形" stroke="none" fill="#00FF62" fill-rule="evenodd"></path>
                        <circle id="椭圆形" stroke="none" fill="#00FF62" fill-rule="evenodd" cx="594.24093" cy="130.294765" r="4"></circle>
                        <circle id="椭圆形备份-7" stroke="none" fill="#00FF62" fill-rule="evenodd" cx="583.24093" cy="120.294765" r="4"></circle>
                        <circle id="椭圆形备份-6" stroke="none" fill="#00FF62" fill-rule="evenodd" cx="616.24093" cy="115.294765" r="5"></circle>
                        <path d="M303.24093,101.3016 C303.24093,101.573837 303.227832,101.8009 303.197892,101.985759 C303.166081,102.171213 303.118676,102.318626 303.058796,102.430968 C302.996422,102.541527 302.92781,102.620583 302.846722,102.670513 C302.763764,102.717471 302.677687,102.744219 302.585372,102.744219 L297.831797,102.744219 L297.831797,107.680745 C297.831797,107.779416 297.804976,107.86501 297.754452,107.936933 C297.702058,108.010045 297.615981,108.071269 297.494974,108.124765 C297.371472,108.181828 297.209921,108.222842 297.003461,108.24959 C296.800743,108.278716 296.54875,108.294765 296.240619,108.294765 C295.936854,108.294765 295.67987,108.278716 295.477152,108.24959 C295.274435,108.222842 295.110389,108.181828 294.988759,108.124765 C294.864633,108.071269 294.776685,108.010045 294.718052,107.936933 C294.663786,107.86501 294.637589,107.779416 294.637589,107.680745 L294.637589,102.744219 L289.896489,102.744219 C289.807916,102.744219 289.723711,102.717471 289.646366,102.670513 C289.569645,102.620583 289.500409,102.541527 289.439906,102.430968 C289.378155,102.318626 289.328879,102.171213 289.293949,101.985759 C289.2559,101.8009 289.24093,101.573837 289.24093,101.3016 C289.24093,101.039468 289.2559,100.813595 289.286464,100.622196 C289.316404,100.43377 289.361314,100.28398 289.413708,100.172827 C289.472341,100.060484 289.535963,99.9814287 289.608941,99.9314988 C289.676306,99.8827577 289.759264,99.8577927 289.851579,99.8577927 L294.637589,99.8577927 L294.637589,94.9355323 C294.637589,94.8368612 294.663786,94.7494838 294.718052,94.6650784 C294.776685,94.5824562 294.864633,94.5146941 294.988759,94.4635754 C295.110389,94.4077014 295.274435,94.3660931 295.477152,94.3375617 C295.67987,94.3090303 295.936854,94.2947646 296.240619,94.2947646 C296.54875,94.2947646 296.800743,94.3090303 297.003461,94.3375617 C297.209921,94.3660931 297.371472,94.4077014 297.494974,94.4635754 C297.615981,94.5146941 297.702058,94.5824562 297.754452,94.6650784 C297.804976,94.7494838 297.831797,94.8368612 297.831797,94.9355323 L297.831797,99.8577927 L302.630906,99.8577927 C302.711369,99.8577927 302.789961,99.8827577 302.867306,99.9314988 C302.944027,99.9814287 303.012015,100.060484 303.066281,100.172827 C303.123042,100.28398 303.166081,100.43377 303.197892,100.622196 C303.227832,100.813595 303.24093,101.039468 303.24093,101.3016" id="Fill-388" stroke="none" fill="#FFFFFF" fill-rule="evenodd"></path>
                        <rect id="矩形" stroke="#FFFFFF" stroke-width="3" fill="none" stroke-linecap="round" stroke-linejoin="round" x="459.24093" y="24.2947646" width="13" height="13"></rect>
                        <rect id="矩形备份-11" stroke="#FFFFFF" stroke-width="3" fill="none" stroke-linecap="round" stroke-linejoin="round" transform="translate(778.7409, 289.7948) rotate(-315) translate(-778.7409, -289.7948)" x="773.74093" y="284.794765" width="10" height="10"></rect>
                        <path d="M521.24093,233.3016 C521.24093,233.573837 521.227832,233.8009 521.197892,233.985759 C521.166081,234.171213 521.118676,234.318626 521.058796,234.430968 C520.996422,234.541527 520.92781,234.620583 520.846722,234.670513 C520.763764,234.717471 520.677687,234.744219 520.585372,234.744219 L515.831797,234.744219 L515.831797,239.680745 C515.831797,239.779416 515.804976,239.86501 515.754452,239.936933 C515.702058,240.010045 515.615981,240.071269 515.494974,240.124765 C515.371472,240.181828 515.209921,240.222842 515.003461,240.24959 C514.800743,240.278716 514.54875,240.294765 514.240619,240.294765 C513.936854,240.294765 513.67987,240.278716 513.477152,240.24959 C513.274435,240.222842 513.110389,240.181828 512.988759,240.124765 C512.864633,240.071269 512.776685,240.010045 512.718052,239.936933 C512.663786,239.86501 512.637589,239.779416 512.637589,239.680745 L512.637589,234.744219 L507.896489,234.744219 C507.807916,234.744219 507.723711,234.717471 507.646366,234.670513 C507.569645,234.620583 507.500409,234.541527 507.439906,234.430968 C507.378155,234.318626 507.328879,234.171213 507.293949,233.985759 C507.2559,233.8009 507.24093,233.573837 507.24093,233.3016 C507.24093,233.039468 507.2559,232.813595 507.286464,232.622196 C507.316404,232.43377 507.361314,232.28398 507.413708,232.172827 C507.472341,232.060484 507.535963,231.981429 507.608941,231.931499 C507.676306,231.882758 507.759264,231.857793 507.851579,231.857793 L512.637589,231.857793 L512.637589,226.935532 C512.637589,226.836861 512.663786,226.749484 512.718052,226.665078 C512.776685,226.582456 512.864633,226.514694 512.988759,226.463575 C513.110389,226.407701 513.274435,226.366093 513.477152,226.337562 C513.67987,226.30903 513.936854,226.294765 514.240619,226.294765 C514.54875,226.294765 514.800743,226.30903 515.003461,226.337562 C515.209921,226.366093 515.371472,226.407701 515.494974,226.463575 C515.615981,226.514694 515.702058,226.582456 515.754452,226.665078 C515.804976,226.749484 515.831797,226.836861 515.831797,226.935532 L515.831797,231.857793 L520.630906,231.857793 C520.711369,231.857793 520.789961,231.882758 520.867306,231.931499 C520.944027,231.981429 521.012015,232.060484 521.066281,232.172827 C521.123042,232.28398 521.166081,232.43377 521.197892,232.622196 C521.227832,232.813595 521.24093,233.039468 521.24093,233.3016" id="Fill-388备份" stroke="none" fill="#FFFFFF" fill-rule="evenodd"></path>
                        <path d="M934.24093,305.3016 C934.24093,305.573837 934.227832,305.8009 934.197892,305.985759 C934.166081,306.171213 934.118676,306.318626 934.058796,306.430968 C933.996422,306.541527 933.92781,306.620583 933.846722,306.670513 C933.763764,306.717471 933.677687,306.744219 933.585372,306.744219 L928.831797,306.744219 L928.831797,311.680745 C928.831797,311.779416 928.804976,311.86501 928.754452,311.936933 C928.702058,312.010045 928.615981,312.071269 928.494974,312.124765 C928.371472,312.181828 928.209921,312.222842 928.003461,312.24959 C927.800743,312.278716 927.54875,312.294765 927.240619,312.294765 C926.936854,312.294765 926.67987,312.278716 926.477152,312.24959 C926.274435,312.222842 926.110389,312.181828 925.988759,312.124765 C925.864633,312.071269 925.776685,312.010045 925.718052,311.936933 C925.663786,311.86501 925.637589,311.779416 925.637589,311.680745 L925.637589,306.744219 L920.896489,306.744219 C920.807916,306.744219 920.723711,306.717471 920.646366,306.670513 C920.569645,306.620583 920.500409,306.541527 920.439906,306.430968 C920.378155,306.318626 920.328879,306.171213 920.293949,305.985759 C920.2559,305.8009 920.24093,305.573837 920.24093,305.3016 C920.24093,305.039468 920.2559,304.813595 920.286464,304.622196 C920.316404,304.43377 920.361314,304.28398 920.413708,304.172827 C920.472341,304.060484 920.535963,303.981429 920.608941,303.931499 C920.676306,303.882758 920.759264,303.857793 920.851579,303.857793 L925.637589,303.857793 L925.637589,298.935532 C925.637589,298.836861 925.663786,298.749484 925.718052,298.665078 C925.776685,298.582456 925.864633,298.514694 925.988759,298.463575 C926.110389,298.407701 926.274435,298.366093 926.477152,298.337562 C926.67987,298.30903 926.936854,298.294765 927.240619,298.294765 C927.54875,298.294765 927.800743,298.30903 928.003461,298.337562 C928.209921,298.366093 928.371472,298.407701 928.494974,298.463575 C928.615981,298.514694 928.702058,298.582456 928.754452,298.665078 C928.804976,298.749484 928.831797,298.836861 928.831797,298.935532 L928.831797,303.857793 L933.630906,303.857793 C933.711369,303.857793 933.789961,303.882758 933.867306,303.931499 C933.944027,303.981429 934.012015,304.060484 934.066281,304.172827 C934.123042,304.28398 934.166081,304.43377 934.197892,304.622196 C934.227832,304.813595 934.24093,305.039468 934.24093,305.3016" id="Fill-388备份-4" stroke="none" fill="#FFFFFF" fill-rule="evenodd"></path>
                        <path d="M973.24093,139.3016 C973.24093,139.573837 973.227832,139.8009 973.197892,139.985759 C973.166081,140.171213 973.118676,140.318626 973.058796,140.430968 C972.996422,140.541527 972.92781,140.620583 972.846722,140.670513 C972.763764,140.717471 972.677687,140.744219 972.585372,140.744219 L967.831797,140.744219 L967.831797,145.680745 C967.831797,145.779416 967.804976,145.86501 967.754452,145.936933 C967.702058,146.010045 967.615981,146.071269 967.494974,146.124765 C967.371472,146.181828 967.209921,146.222842 967.003461,146.24959 C966.800743,146.278716 966.54875,146.294765 966.240619,146.294765 C965.936854,146.294765 965.67987,146.278716 965.477152,146.24959 C965.274435,146.222842 965.110389,146.181828 964.988759,146.124765 C964.864633,146.071269 964.776685,146.010045 964.718052,145.936933 C964.663786,145.86501 964.637589,145.779416 964.637589,145.680745 L964.637589,140.744219 L959.896489,140.744219 C959.807916,140.744219 959.723711,140.717471 959.646366,140.670513 C959.569645,140.620583 959.500409,140.541527 959.439906,140.430968 C959.378155,140.318626 959.328879,140.171213 959.293949,139.985759 C959.2559,139.8009 959.24093,139.573837 959.24093,139.3016 C959.24093,139.039468 959.2559,138.813595 959.286464,138.622196 C959.316404,138.43377 959.361314,138.28398 959.413708,138.172827 C959.472341,138.060484 959.535963,137.981429 959.608941,137.931499 C959.676306,137.882758 959.759264,137.857793 959.851579,137.857793 L964.637589,137.857793 L964.637589,132.935532 C964.637589,132.836861 964.663786,132.749484 964.718052,132.665078 C964.776685,132.582456 964.864633,132.514694 964.988759,132.463575 C965.110389,132.407701 965.274435,132.366093 965.477152,132.337562 C965.67987,132.30903 965.936854,132.294765 966.240619,132.294765 C966.54875,132.294765 966.800743,132.30903 967.003461,132.337562 C967.209921,132.366093 967.371472,132.407701 967.494974,132.463575 C967.615981,132.514694 967.702058,132.582456 967.754452,132.665078 C967.804976,132.749484 967.831797,132.836861 967.831797,132.935532 L967.831797,137.857793 L972.630906,137.857793 C972.711369,137.857793 972.789961,137.882758 972.867306,137.931499 C972.944027,137.981429 973.012015,138.060484 973.066281,138.172827 C973.123042,138.28398 973.166081,138.43377 973.197892,138.622196 C973.227832,138.813595 973.24093,139.039468 973.24093,139.3016" id="Fill-388备份-2" stroke="none" fill="#FFFFFF" fill-rule="evenodd"></path>
                        <path d="M756.24093,194.3016 C756.24093,194.573837 756.227832,194.8009 756.197892,194.985759 C756.166081,195.171213 756.118676,195.318626 756.058796,195.430968 C755.996422,195.541527 755.92781,195.620583 755.846722,195.670513 C755.763764,195.717471 755.677687,195.744219 755.585372,195.744219 L750.831797,195.744219 L750.831797,200.680745 C750.831797,200.779416 750.804976,200.86501 750.754452,200.936933 C750.702058,201.010045 750.615981,201.071269 750.494974,201.124765 C750.371472,201.181828 750.209921,201.222842 750.003461,201.24959 C749.800743,201.278716 749.54875,201.294765 749.240619,201.294765 C748.936854,201.294765 748.67987,201.278716 748.477152,201.24959 C748.274435,201.222842 748.110389,201.181828 747.988759,201.124765 C747.864633,201.071269 747.776685,201.010045 747.718052,200.936933 C747.663786,200.86501 747.637589,200.779416 747.637589,200.680745 L747.637589,195.744219 L742.896489,195.744219 C742.807916,195.744219 742.723711,195.717471 742.646366,195.670513 C742.569645,195.620583 742.500409,195.541527 742.439906,195.430968 C742.378155,195.318626 742.328879,195.171213 742.293949,194.985759 C742.2559,194.8009 742.24093,194.573837 742.24093,194.3016 C742.24093,194.039468 742.2559,193.813595 742.286464,193.622196 C742.316404,193.43377 742.361314,193.28398 742.413708,193.172827 C742.472341,193.060484 742.535963,192.981429 742.608941,192.931499 C742.676306,192.882758 742.759264,192.857793 742.851579,192.857793 L747.637589,192.857793 L747.637589,187.935532 C747.637589,187.836861 747.663786,187.749484 747.718052,187.665078 C747.776685,187.582456 747.864633,187.514694 747.988759,187.463575 C748.110389,187.407701 748.274435,187.366093 748.477152,187.337562 C748.67987,187.30903 748.936854,187.294765 749.240619,187.294765 C749.54875,187.294765 749.800743,187.30903 750.003461,187.337562 C750.209921,187.366093 750.371472,187.407701 750.494974,187.463575 C750.615981,187.514694 750.702058,187.582456 750.754452,187.665078 C750.804976,187.749484 750.831797,187.836861 750.831797,187.935532 L750.831797,192.857793 L755.630906,192.857793 C755.711369,192.857793 755.789961,192.882758 755.867306,192.931499 C755.944027,192.981429 756.012015,193.060484 756.066281,193.172827 C756.123042,193.28398 756.166081,193.43377 756.197892,193.622196 C756.227832,193.813595 756.24093,194.039468 756.24093,194.3016" id="Fill-388备份-3" stroke="none" fill="#FFFFFF" fill-rule="evenodd"></path>
                        <path d="M601.227715,3.5 C601.227715,1.56640388 599.663209,0 597.734323,0 C595.804377,0 594.24093,1.56640388 594.24093,3.5 C594.24093,5.43359612 595.804377,7 597.734323,7 C599.663209,7 601.227715,5.43359612 601.227715,3.5 Z" id="Stroke-294" stroke="#FFFFFF" stroke-width="3" fill="none" stroke-linecap="round" stroke-linejoin="round"></path>
                        <path d="M454.227715,160.5 C454.227715,158.566404 452.663209,157 450.734323,157 C448.804377,157 447.24093,158.566404 447.24093,160.5 C447.24093,162.433596 448.804377,164 450.734323,164 C452.663209,164 454.227715,162.433596 454.227715,160.5 Z" id="Stroke-294备份" stroke="#FFFFFF" stroke-width="3" fill="none" stroke-linecap="round" stroke-linejoin="round"></path>
                        <path d="M709.227715,61.5 C709.227715,59.5664039 707.663209,58 705.734323,58 C703.804377,58 702.24093,59.5664039 702.24093,61.5 C702.24093,63.4335961 703.804377,65 705.734323,65 C707.663209,65 709.227715,63.4335961 709.227715,61.5 Z" id="Stroke-294备份-2" stroke="#FFFFFF" stroke-width="3" fill="none" stroke-linecap="round" stroke-linejoin="round"></path>
                        <path d="M630.227715,206.5 C630.227715,204.566404 628.663209,203 626.734323,203 C624.804377,203 623.24093,204.566404 623.24093,206.5 C623.24093,208.433596 624.804377,210 626.734323,210 C628.663209,210 630.227715,208.433596 630.227715,206.5 Z" id="Stroke-294备份-4" stroke="#FFFFFF" stroke-width="3" fill="none" stroke-linecap="round" stroke-linejoin="round"></path>
                        <path d="M892.227715,187.5 C892.227715,185.566404 890.663209,184 888.734323,184 C886.804377,184 885.24093,185.566404 885.24093,187.5 C885.24093,189.433596 886.804377,191 888.734323,191 C890.663209,191 892.227715,189.433596 892.227715,187.5 Z" id="Stroke-294备份-3" stroke="#FFFFFF" stroke-width="3" fill="none" stroke-linecap="round" stroke-linejoin="round"></path>
                        <path d="M1124.37233,245.041551 C1128.79033,249.416551 1128.94533,251.799551 1124.45833,256.211551 C1119.64633,260.938551 1122.85533,263.363551 1126.33333,267.380551 C1130.51133,272.216551 1126.14433,274.419551 1123.14033,278.044551 C1119.73033,282.165551 1123.15233,284.588551 1126.10133,287.494551 C1133.66533,294.935551 1117.44333,297.372551 1122.67933,304.676551 C1124.53633,307.268551 1128.56233,308.300551 1128.29633,312.102551 C1128.03533,315.865551 1123.79033,316.696551 1122.21433,319.624551 C1121.82233,320.354551 1121.59333,321.109551 1121.60333,321.947551" id="Stroke-1" stroke="#FFFFFF" stroke-width="3" fill="none" transform="translate(1124.956, 283.4946) rotate(-270) translate(-1124.956, -283.4946)"></path>
                    </g>
                </g>
            </g>
        </g>
    </g>
</svg>
